<svg xmlns="http://www.w3.org/2000/svg" viewBox="0 0 200 200">
  <defs>
    <linearGradient id="g" x1="0" y1="0" x2="1" y2="1">
      <stop offset="0" stop-color="#7A0B16"/><stop offset="1" stop-color="#A80E1E"/>
    </linearGradient>
  </defs>
  <rect x="20" y="60" width="160" height="100" rx="6" fill="url(#g)" stroke="#3A1A1F" stroke-width="4"/>
  <polygon points="20,60 180,60 100,20" fill="#5e0b12" stroke="#3A1A1F" stroke-width="4"/>
  <rect x="90" y="110" width="20" height="50" fill="#E7B416" stroke="#3A1A1F" stroke-width="3"/>
  <line x1="90" y1="110" x2="110" y2="160" stroke="#3A1A1F" stroke-width="3"/>
  <line x1="110" y1="110" x2="90" y2="160" stroke="#3A1A1F" stroke-width="3"/>
  <ellipse cx="70" cy="95" rx="14" ry="10" fill="#fff" stroke="#000" stroke-width="2"/>
  <ellipse cx="130" cy="95" rx="14" ry="10" fill="#fff" stroke="#000" stroke-width="2"/>
  <circle cx="74" cy="95" r="4" fill="#000"/><circle cx="126" cy="92" r="4" fill="#000"/>
  <path d="M60,80 L85,75" stroke="#000" stroke-width="5"/>
  <path d="M115,75 L140,80" stroke="#000" stroke-width="5"/>
  <circle cx="25" cy="120" r="16" fill="#A80E1E" stroke="#5e0b12" stroke-width="4"/>
  <path d="M12,120 A16,16 0 0 1 38,120" stroke="#222" stroke-width="4" fill="none"/>
  <circle cx="175" cy="120" r="16" fill="#A80E1E" stroke="#5e0b12" stroke-width="4"/>
  <path d="M162,120 A16,16 0 0 1 188,120" stroke="#222" stroke-width="4" fill="none"/>
</svg>